# xmcd
#
# Track frame offsets:
#	150
#	19197
#	38582
#	74805
#	88337
#	121280
#	200985
#	225402
#
# Disc length: 3228 seconds
#
# Revision: 3
# Processed by: cddbd v1.5.2PL0 Copyright (c) Steve Scherf et al.
# Submitted via: EZCDAudioConverter 5.0.3.2
#
DISCID=700c9a08
DTITLE=Julian Sas - Julian Sas Band Live
DYEAR=1998
DGENRE=Blues
TTITLE0=Sugar Cup Boogie
TTITLE1=Maudie
TTITLE2=Last Man In, First Man Out
TTITLE3=Turpentine Moan
TTITLE4=County Jail Blues
TTITLE5=Makin' My Return (Back Up Where I've Been)
TTITLE6=Home Feelin'
TTITLE7=Shake Your Money maker
EXTD=
EXTT0=
EXTT1=
EXTT2=
EXTT3=
EXTT4=
EXTT5=
EXTT6=
EXTT7=
PLAYORDER=
